# xmcd
#
# Track frame offsets:
#	150
#	19492
#	40085
#	56595
#	77992
#	96492
#	113935
#	131277
#	153470
#	171187
#	190462
#	208052
#	223252
#	237935
#	250647
#	266835
#	278937
#	292330
#
# Disc length: 4101 seconds
#
# Revision: 1
# Processed by: cddbd v1.5PL3 Copyright (c) Steve Scherf et al.
# Submitted via: CDex 1.50Beta5
#
DISCID=1e100312
DTITLE=和田アキ子 - 和田アキ子グレイテスト・ヒッツ1968〜1991
DYEAR=1991
DGENRE=Pop
TTITLE0=だってしょうがないじゃない
TTITLE1=抱かれ上手
TTITLE2=よくやるね
TTITLE3=続・だってしょうがないじゃない
TTITLE4=よくやるね
TTITLE5=あの鐘を鳴らすのはあなた
TTITLE6=抱擁
TTITLE7=もう一度ふたりで歌いたい
TTITLE8=バ・カ・ダ・ネ
TTITLE9=君が野に咲くバラなら
TTITLE10=酔ったからって
TTITLE11=コーラス・ガール
TTITLE12=二杯目のお酒
TTITLE13=古い日記
TTITLE14=あの鐘を鳴らすのはあなた
TTITLE15=笑って許して
TTITLE16=どしゃ降りの雨の中で
TTITLE17=星空の孤独
EXTD=
EXTT0=
EXTT1=
EXTT2=
EXTT3=
EXTT4=
EXTT5=
EXTT6=
EXTT7=
EXTT8=
EXTT9=
EXTT10=
EXTT11=
EXTT12=
EXTT13=
EXTT14=
EXTT15=
EXTT16=
EXTT17=
PLAYORDER=
